{"title":"[GR HARDSUBBED] Lassie.2005.PROPER.DVDRip.720p.x264-GRRiPS","uid":8542088,"size":827039688,"categoryP":"video","categoryS":"movies_dvdr","magnet":"?xt=urn:btih:fbb584ff104daed6ea243c56faa58e973d54f31c&amp;dn=%5BGR+HARDSUBBED%5D+Lassie.2005.PROPER.DVDRip.720p.x264-GRRiPS&amp;tr=udp%3A%2F%2Ftracker.openbittorrent.com%3A80&amp;tr=udp%3A%2F%2Fopen.demonii.com%3A1337&amp;tr=udp%3A%2F%2Ftracker.coppersurfer.tk%3A6969&amp;tr=udp%3A%2F%2Fexodus.desync.com%3A6969","seeders":1,"leechers":0,"uploader":"GRRiPS","files":-1,"time":1370422238,"description":"----------------------------------------------------------------------------\n** PLEASE BE ADVICED: DO NOT DOWNLOAD THIS IF YOU CAN'T SPEAK/READ GREEK **\n----------------------------------------------------------------------------\n\n----------------------------------------------------------------------------\n** AUTH EINAI H -PROPER- EKDOSH THS TAINIAS. H ALLH DEN EIXE SEED GIATI EIXE LA8AKIA ;) **\n----------------------------------------------------------------------------\n\nGeneral\nComplete name                            : Lassie.2005.DVDRip.720p.x264-GRRiPS.mp4\nFormat                                   : MPEG-4\nFormat profile                           : Base Media\nCodec ID                                 : isom\nFile size                                : 789 MiB\nDuration                                 : 1h 35mn\nOverall bit rate mode                    : Variable\nOverall bit rate                         : 1 154 Kbps\n\nVideo\nID                                       : 1\nFormat                                   : AVC\nFormat/Info                              : Advanced Video Codec\nFormat profile                           : &lt;a class=&quot;__cf_email__&quot; href=&quot;/cdn-cgi/l/email-protection&quot; data-cfemail=&quot;145c7d737c5458203a24&quot;&gt;[email&amp;#160;protected]&lt;/a&gt;&lt;script cf-hash='f9e31' type=&quot;text/javascript&quot;&gt;\n/* &lt;![CDATA[ */!function(){try{var t=&quot;currentScript&quot;in document?document.currentScript:function(){for(var t=document.getElementsByTagName(&quot;script&quot;),e=t.length;e--;)if(t[e].getAttribute(&quot;cf-hash&quot;))return t[e]}();if(t&amp;&amp;t.previousSibling){var e,r,n,i,c=t.previousSibling,a=c.getAttribute(&quot;data-cfemail&quot;);if(a){for(e=&quot;&quot;,r=parseInt(a.substr(0,2),16),n=2;a.length-n;n+=2)i=parseInt(a.substr(n,2),16)^r,e+=String.fromCharCode(i);e=document.createTextNode(e),c.parentNode.replaceChild(e,c)}}}catch(u){}}();/* ]]&gt; */&lt;/script&gt;\nFormat settings, CABAC                   : Yes\nFormat settings, ReFrames                : 3 frames\nCodec ID                                 : avc1\nCodec ID/Info                            : Advanced Video Coding\nDuration                                 : 1h 35mn\nBit rate mode                            : Variable\nBit rate                                 : 1 023 Kbps\nMaximum bit rate                         : 25.0 Mbps\nWidth                                    : 1 280 pixels\nHeight                                   : 720 pixels\nDisplay aspect ratio                     : 16:9\nFrame rate mode                          : Constant\nFrame rate                               : 25.000 fps\nColor space                              : YUV\nChroma subsampling                       : 4:2:0\nBit depth                                : 8 bits\nScan type                                : Progressive\nBits/(Pixel*Frame)                       : 0.044\nStream size                              : 699 MiB (89%)\nWriting library                          : x264 core 129 r2245 bc13772\n\nAudio\nID                                       : 2\nFormat                                   : AAC\nFormat/Info                              : Advanced Audio Codec\nFormat profile                           : LC\nCodec ID                                 : 40\nDuration                                 : 1h 35mn\nBit rate mode                            : Variable\nBit rate                                 : 128 Kbps\nMaximum bit rate                         : 135 Kbps\nChannel(s)                               : 2 channels\nChannel positions                        : Front: L R\nSampling rate                            : 48.0 KHz\nCompression mode                         : Lossy\nStream size                              : 87.5 MiB (11%)\n\nDIKO MOU RIP.\n\nAPO EDW MPOREITE NA TO  KATEBASETE APO ONLINE HOSTER, AN DEN 8ELETE NA PERIMENE TORRENT 'H EXEI XAMILI TAXITHTA! :D\n(AFERESTE TA KENA, ALLIWS DEN THA ANIKSEI)\n\nEPILOGH 1: a df. ly/PxtiR\nEPILOGH 2: a df. ly/Pxu4A\n\nFULL SCREENSHOTS: &lt;a href=&quot;\nhttp://bayimg.com/kanLbaAeA&quot; rel=&quot;nofollow&quot; target=&quot;_NEW&quot;&gt;\nhttp://bayimg.com/kanLbaAeA&lt;/a&gt;\n\nKali proboli kai SEED!!","torrent":{"xt":"urn:btih:fbb584ff104daed6ea243c56faa58e973d54f31c","amp;dn":"%5BGR+HARDSUBBED%5D+Lassie.2005.PROPER.DVDRip.720p.x264-GRRiPS","amp;tr":["udp%3A%2F%2Ftracker.openbittorrent.com%3A80","udp%3A%2F%2Fopen.demonii.com%3A1337","udp%3A%2F%2Ftracker.coppersurfer.tk%3A6969","udp%3A%2F%2Fexodus.desync.com%3A6969"],"infoHash":"fbb584ff104daed6ea243c56faa58e973d54f31c","infoHashBuffer":{"type":"Buffer","data":[251,181,132,255,16,77,174,214,234,36,60,86,250,165,142,151,61,84,243,28]},"announce":[],"urlList":[]}}